<?xml version="1.0" ?><svg id="Layer_1_1_" style="enable-background:new 0 0 64 64;" version="1.1" viewBox="0 0 64 64" xml:space="preserve" xmlns="http://www.w3.org/2000/svg" xmlns:xlink="http://www.w3.org/1999/xlink"><g><g><path d="M62,7c0-1.105-0.895-2-2-2H39.136C37.321,3.15,34.796,2,32,2s-5.321,1.15-7.136,3H4    C2.895,5,2,5.895,2,7v12h22.864c1.815,1.85,4.34,3,7.136,3s5.321-1.15,7.136-3H62V7z" style="fill:#A0D468;"/><rect height="6" style="fill:#FFEAA7;" width="48" x="8" y="9"/><rect height="16" style="fill:#DFB28B;" width="56" x="4" y="46"/><rect height="23" style="fill:#DFB28B;" width="4" x="6" y="19"/><rect height="23" style="fill:#DFB28B;" width="4" x="54" y="19"/><rect height="12" style="fill:#E6E9ED;" width="12" x="14" y="30"/><rect height="4" style="fill:#FF826E;" width="12" x="14" y="34"/><rect height="8" style="fill:#CCD1D9;" width="4" x="36" y="34"/><rect height="8" style="fill:#CCD1D9;" width="4" x="44" y="34"/><rect height="8" style="fill:#E6E9ED;" width="44" x="10" y="50"/><rect height="2" style="fill:#CF9E76;" width="4" x="6" y="19"/><rect height="2" style="fill:#CF9E76;" width="4" x="54" y="19"/><rect height="2" style="fill:#CF9E76;" width="4" x="54" y="40"/><rect height="2" style="fill:#CF9E76;" width="4" x="6" y="40"/><rect height="2" style="fill:#CF9E76;" width="56" x="4" y="46"/><rect height="2" style="fill:#CCD1D9;" width="12" x="14" y="40"/><rect height="2" style="fill:#AAB2BD;" width="4" x="36" y="40"/><rect height="2" style="fill:#AAB2BD;" width="4" x="44" y="40"/><path d="M61,46H3c-0.552,0-1-0.448-1-1v-2c0-0.552,0.448-1,1-1h58c0.552,0,1,0.448,1,1v2    C62,45.552,61.552,46,61,46z" style="fill:#B27946;"/></g><g><path d="M57,8H7v8h50V8z M55,14H9v-4h46V14z"/><path d="M55,59V49H9v10H55z M11,51h42v6H11V51z"/><path d="M63,20V7c0-1.654-1.346-3-3-3H39.544C37.494,2.062,34.832,1,32,1s-5.494,1.062-7.544,3H4C2.346,4,1,5.346,1,7v13h4v21H3    c-1.103,0-2,0.897-2,2v2c0,1.103,0.897,2,2,2v16h58V47c1.103,0,2-0.897,2-2v-2c0-1.103-0.897-2-2-2h-2V20H63z M3,7    c0-0.551,0.448-1,1-1h21.284l0.294-0.3C27.286,3.959,29.567,3,32,3s4.714,0.959,6.422,2.7L38.716,6H60c0.552,0,1,0.449,1,1v11    H38.716l-0.294,0.3C36.714,20.041,34.433,21,32,21s-4.714-0.959-6.422-2.7L25.284,18H3V7z M49,41v-8h-6v8h-2v-8h-6v8h-8V29H13v12    h-2V20h13.456c2.05,1.938,4.712,3,7.544,3s5.494-1.062,7.544-3H53v21H49z M47,41h-2v-6h2V41z M39,41h-2v-6h2V41z M25,33H15v-2h10    V33z M15,35h10v2H15V35z M15,39h10v2H15V39z M7,20h2v21H7V20z M59,61H5V47h54V61z M61.001,45H3v-2h58L61.001,45z M57,41h-2V20h2    V41z"/></g></g></svg>